<svg width="81" height="81" viewBox="0 0 81 81" fill="none" xmlns="http://www.w3.org/2000/svg">
<g clip-path="url(#clip0_136_11582)">
<circle cx="40.5" cy="40.5" r="40.5" fill="#D9D9D9"/>
<path d="M75.0833 61.4619L56.178 14.4281C55.9249 13.558 55.1813 13.0518 54.4378 12.941L45.2303 12.1975C45.2303 12.0709 45.1038 11.9443 44.9772 11.8178C44.9772 11.6912 44.8507 11.5647 44.8507 11.5647C44.8507 11.4381 44.8507 11.4381 44.7241 11.3115C44.7241 11.185 44.5975 11.0584 44.5975 10.9318C44.471 10.6787 44.471 10.5522 44.3444 10.3148V10.1883C44.3444 10.0617 44.3444 10.0617 44.2178 9.93516C43.8382 8.44805 42.351 8.06837 40.4843 8.06837C40.3577 8.06837 40.2311 7.9418 40.1046 7.9418C38.1112 7.9418 36.6241 8.55879 36.6241 10.5522C36.6241 11.0426 36.7507 11.5488 36.8772 11.9285V12.0551L26.42 13.0518C25.4233 13.1783 24.4266 14.175 24.4266 15.1717V15.5514V15.9311V24.2684L23.1768 24.3949C21.8005 24.5215 20.693 25.7713 20.693 27.1318V27.5115V27.8912V35.485V35.8647V36.2443V39.9779V40.3576V40.4842V53.5518H19.4432V54.4219V64.4994V64.8791V65.2588L24.6639 77.8201C29.5208 79.94 34.9946 81.0475 40.595 81.0475C55.0548 80.8734 67.9958 73.0424 75.0833 61.4619Z" fill="#575C6A"/>
<path d="M56.3045 25.265V15.1875C56.3045 14.1908 55.4344 13.1941 54.4377 13.0676L42.3668 12.0709C41.3702 12.0709 39.6299 12.0709 38.6333 12.0709L26.5624 13.0676C25.5657 13.1941 24.6956 14.1908 24.6956 15.1875V25.265C24.6956 25.265 56.3045 25.265 56.3045 25.265Z" fill="#CC584C"/>
<path d="M54.3112 13.0676L42.3668 12.0709C41.4967 12.0709 40.2469 12.0709 39.2502 12.0709C39.7407 12.0709 40.1204 12.0709 40.5 12.0709L52.3178 13.0676C53.3145 13.1941 54.0581 14.1908 54.0581 15.1875V25.1385H55.9249V15.1875C55.9249 14.0643 55.3079 13.1941 54.3112 13.0676Z" fill="#BF5347"/>
<path d="M26.942 24.5057V15.5514L38.6332 14.5547C39.0129 14.5547 39.6299 14.5547 40.2469 14.5547C40.9905 14.5547 41.6233 14.5547 42.2403 14.5547L53.6942 15.4248V24.3791H26.942V24.5057Z" fill="#C2E2F2"/>
<path d="M28.176 25.1385V16.6746L38.6333 15.8045C39.0129 15.8045 39.6299 15.8045 40.1204 15.8045C40.8639 15.8045 41.4967 15.8045 41.9872 15.8045L52.1913 16.6746V25.1385H28.176Z" fill="#CCEEFF"/>
<path d="M41.3701 15.5514H38.8864V23.7621H41.3701V15.5514Z" fill="#C2E2F2"/>
<path d="M59.7851 53.5043V27.1318C59.7851 25.7555 58.7884 24.5215 57.4278 24.3949L42.9997 23.3982C41.6233 23.3982 39.3927 23.3982 38.0163 23.3982L23.3351 24.3949C21.8479 24.5215 20.5981 25.7713 20.5981 27.1318V53.5043H59.7851Z" fill="#CC584C"/>
<path d="M57.4278 24.3949L42.9996 23.3982C41.8764 23.3982 40.2627 23.3982 38.8864 23.3982C39.5033 23.3982 40.0096 23.3982 40.5 23.3982L54.9282 24.3949C56.3045 24.5215 57.2854 25.7713 57.2854 27.1318V53.5043H59.7692V27.1318C59.785 25.7555 58.7883 24.5057 57.4278 24.3949Z" fill="#BF5347"/>
<path d="M42.1138 35.216V23.3982C40.864 23.3982 38.3802 23.3982 38.3802 23.3982V35.216H20.5981V39.6932H38.0163H42.4935H59.9116V35.216H42.1138V35.216Z" fill="#994239"/>
<path d="M40.5001 44.2811C44.3445 44.2811 47.4611 41.1645 47.4611 37.3201C47.4611 33.4757 44.3445 30.3592 40.5001 30.3592C36.6557 30.3592 33.5392 33.4757 33.5392 37.3201C33.5392 41.1645 36.6557 44.2811 40.5001 44.2811Z" fill="#F5F5F5"/>
<path d="M61.0348 64.452L40.1203 68.9291L19.3483 64.452V53.5043H61.0348V64.452Z" fill="#B3B3B3"/>
<path d="M59.168 53.5043V64.452L39.3768 68.676L40.2469 68.9291L61.0348 64.452V53.5043H59.168Z" fill="#A6A6A6"/>
<path d="M43.9806 68.059V53.5043H42.7466V68.3121L43.9806 68.059Z" fill="#999999"/>
<path d="M49.0905 66.9357V53.5043H47.7141V67.3154L49.0905 66.9357Z" fill="#999999"/>
<path d="M54.6908 65.8125V53.5043H53.441V66.0656L54.6908 65.8125Z" fill="#999999"/>
<path d="M26.9421 66.0656V53.5043H25.6923V65.8125L26.9421 66.0656Z" fill="#999999"/>
<path d="M31.783 67.0623L32.669 67.3154V53.5043H31.2926V66.9357L31.783 67.0623Z" fill="#999999"/>
<path d="M37.6366 68.3121V53.5043H36.3868V68.059L37.6366 68.3121Z" fill="#999999"/>
<path d="M47.461 37.3201H46.2112C46.2112 38.9338 45.5942 40.3102 44.5975 41.3068C43.6008 42.3035 42.1137 42.9205 40.6108 42.9205C38.9971 42.9205 37.6208 42.3035 36.6241 41.3068C35.6274 40.3102 35.0104 38.823 35.0104 37.3201C35.0104 35.7064 35.6274 34.3301 36.6241 33.3334C37.6208 32.3367 39.1079 31.7197 40.6108 31.7197C42.2245 31.7197 43.6008 32.3367 44.5975 33.3334C45.5942 34.3301 46.2112 35.8172 46.2112 37.3201H47.461H48.7108C48.7108 32.843 44.9772 29.1094 40.5 29.1094C36.0229 29.1094 32.2893 32.843 32.2893 37.3201C32.2893 41.7973 36.0229 45.5309 40.5 45.5309C44.9772 45.5309 48.7108 41.7973 48.7108 37.3201H47.461Z" fill="#242424"/>
<path d="M27.1794 52.3811C29.2414 52.3811 30.913 50.7095 30.913 48.6475C30.913 46.5855 29.2414 44.9139 27.1794 44.9139C25.1174 44.9139 23.4458 46.5855 23.4458 48.6475C23.4458 50.7095 25.1174 52.3811 27.1794 52.3811Z" fill="#B3B3B3"/>
<path d="M27.1793 51.1312C28.5511 51.1312 29.6631 50.0192 29.6631 48.6475C29.6631 47.2757 28.5511 46.1637 27.1793 46.1637C25.8076 46.1637 24.6956 47.2757 24.6956 48.6475C24.6956 50.0192 25.8076 51.1312 27.1793 51.1312Z" fill="#E6E6E6"/>
<path d="M53.8208 52.3811C55.8828 52.3811 57.5543 50.7095 57.5543 48.6475C57.5543 46.5855 55.8828 44.9139 53.8208 44.9139C51.7587 44.9139 50.0872 46.5855 50.0872 48.6475C50.0872 50.7095 51.7587 52.3811 53.8208 52.3811Z" fill="#B3B3B3"/>
<path d="M53.8208 51.1312C55.1926 51.1312 56.3046 50.0192 56.3046 48.6475C56.3046 47.2757 55.1926 46.1637 53.8208 46.1637C52.4491 46.1637 51.337 47.2757 51.337 48.6475C51.337 50.0192 52.4491 51.1312 53.8208 51.1312Z" fill="#E6E6E6"/>
<path d="M44.2337 10.6945C44.2337 12.8144 42.4934 14.4281 40.5001 14.4281C38.3802 14.4281 36.7665 12.6879 36.7665 10.6945C36.7665 8.57461 38.5067 8.21074 40.5001 8.21074C42.62 8.21074 44.2337 8.71699 44.2337 10.6945Z" fill="#CC584C"/>
<path d="M40.5 8.21074C40.3735 8.21074 40.2469 8.21074 40.1204 8.21074C42.1137 8.21074 43.6008 8.70117 43.6008 10.6945C43.6008 12.6879 42.1137 14.3016 40.1204 14.4281C40.2469 14.4281 40.3735 14.4281 40.5 14.4281C42.62 14.4281 44.2336 12.6879 44.2336 10.6945C44.2336 8.70117 42.62 8.21074 40.5 8.21074Z" fill="#BF5347"/>
<path d="M43.6166 10.6945C43.6166 12.4348 42.2403 13.8111 40.5 13.8111C38.7598 13.8111 37.3834 12.4348 37.3834 10.6945C37.3834 8.95429 38.7598 8.82773 40.5 8.82773C42.2403 8.82773 43.6166 8.95429 43.6166 10.6945Z" fill="#F5F5F5"/>
<path d="M56.3045 25.265V15.1875C56.3045 14.1908 55.4344 13.1941 54.4377 13.0676L42.3668 12.0709C41.3702 12.0709 39.6299 12.0709 38.6333 12.0709L26.5624 13.0676C25.5657 13.1941 24.6956 14.1908 24.6956 15.1875V25.265C24.6956 25.265 56.3045 25.265 56.3045 25.265Z" fill="#263740"/>
<path d="M54.3112 13.0676L42.3668 12.0709C41.4967 12.0709 40.2469 12.0709 39.2502 12.0709C39.7407 12.0709 40.1204 12.0709 40.5 12.0709L52.3178 13.0676C53.3145 13.1941 54.0581 14.1908 54.0581 15.1875V25.1385H55.9249V15.1875C55.9249 14.0643 55.3079 13.1941 54.3112 13.0676Z" fill="#1E2C33"/>
<path d="M26.942 24.5057V15.5514L38.6332 14.5547C39.0129 14.5547 39.6299 14.5547 40.2469 14.5547C40.9905 14.5547 41.6233 14.5547 42.2403 14.5547L53.6942 15.4248V24.3791H26.942V24.5057Z" fill="#C2E2F2"/>
<path d="M28.176 25.1385V16.6746L38.6333 15.8045C39.0129 15.8045 39.6299 15.8045 40.1204 15.8045C40.8639 15.8045 41.4967 15.8045 41.9872 15.8045L52.1913 16.6746V25.1385H28.176Z" fill="#E6F7FF"/>
<path d="M41.3701 15.5514H38.8864V23.7621H41.3701V15.5514Z" fill="#C2E2F2"/>
<path d="M59.7851 53.5043V27.1318C59.7851 25.7555 58.7884 24.5215 57.4278 24.3949L42.9997 23.3982C41.6233 23.3982 39.3927 23.3982 38.0163 23.3982L23.3351 24.3949C21.8479 24.5215 20.5981 25.7713 20.5981 27.1318V53.5043H59.7851Z" fill="#263740"/>
<path d="M57.4278 24.3949L42.9996 23.3982C41.8764 23.3982 40.2627 23.3982 38.8864 23.3982C39.5033 23.3982 40.0096 23.3982 40.5 23.3982L54.9282 24.3949C56.3045 24.5215 57.2854 25.7713 57.2854 27.1318V53.5043H59.7692V27.1318C59.785 25.7555 58.7883 24.5057 57.4278 24.3949Z" fill="#1E2C33"/>
<path d="M42.1138 35.216V23.3982C40.864 23.3982 38.3802 23.3982 38.3802 23.3982V35.216H20.5981V39.6932H38.0163H42.4935H59.9116V35.216H42.1138V35.216Z" fill="#F5F5F5"/>
<path d="M40.5001 44.2811C44.3445 44.2811 47.4611 41.1645 47.4611 37.3201C47.4611 33.4757 44.3445 30.3592 40.5001 30.3592C36.6557 30.3592 33.5392 33.4757 33.5392 37.3201C33.5392 41.1645 36.6557 44.2811 40.5001 44.2811Z" fill="#F5F5F5"/>
<path d="M63.8983 64.3254L40.5 68.8025L17.1018 64.3254L19.6014 53.5043H61.3987L63.8983 64.3254Z" fill="#E6E6E6"/>
<path d="M43.9806 68.059V53.5043H42.7466V68.3121L43.9806 68.059Z" fill="#CCCCCC"/>
<path d="M49.0905 66.9357V53.5043H47.7141V67.3154L49.0905 66.9357Z" fill="#CCCCCC"/>
<path d="M54.6908 65.8125V53.5043H53.441V66.0656L54.6908 65.8125Z" fill="#CCCCCC"/>
<path d="M26.9421 66.0656V53.5043H25.6923V65.8125L26.9421 66.0656Z" fill="#CCCCCC"/>
<path d="M31.783 67.0623L32.669 67.3154V53.5043H31.2926V66.9357L31.783 67.0623Z" fill="#CCCCCC"/>
<path d="M37.6366 68.3121V53.5043H36.3868V68.059L37.6366 68.3121Z" fill="#CCCCCC"/>
<path d="M59.168 53.5043V64.452L39.3768 68.676L40.3735 68.9291L63.8983 64.3254L61.3987 53.5043H59.168Z" fill="#CCCCCC"/>
<path d="M40.5 45.5467C36.0229 45.5467 32.2893 41.8131 32.2893 37.3359C32.2893 32.8588 36.0229 29.1094 40.5 29.1094C44.9772 29.1094 48.7108 32.843 48.7108 37.3201C48.7108 41.7973 44.9772 45.5467 40.5 45.5467ZM40.5 31.609C37.3834 31.609 34.7731 34.2193 34.7731 37.3359C34.7731 40.4525 37.3834 42.9363 40.5 42.9363C43.6166 42.9363 46.227 40.326 46.227 37.2094C46.227 34.0928 43.6166 31.609 40.5 31.609Z" fill="#A9AFC3"/>
<path d="M27.1794 52.3811C29.2414 52.3811 30.913 50.7095 30.913 48.6475C30.913 46.5855 29.2414 44.9139 27.1794 44.9139C25.1174 44.9139 23.4458 46.5855 23.4458 48.6475C23.4458 50.7095 25.1174 52.3811 27.1794 52.3811Z" fill="#B3B3B3"/>
<path d="M27.1793 51.1312C28.5511 51.1312 29.6631 50.0192 29.6631 48.6475C29.6631 47.2757 28.5511 46.1637 27.1793 46.1637C25.8076 46.1637 24.6956 47.2757 24.6956 48.6475C24.6956 50.0192 25.8076 51.1312 27.1793 51.1312Z" fill="#E6E6E6"/>
<path d="M53.8208 52.3811C55.8828 52.3811 57.5543 50.7095 57.5543 48.6475C57.5543 46.5855 55.8828 44.9139 53.8208 44.9139C51.7587 44.9139 50.0872 46.5855 50.0872 48.6475C50.0872 50.7095 51.7587 52.3811 53.8208 52.3811Z" fill="#B3B3B3"/>
<path d="M53.8208 51.1312C55.1926 51.1312 56.3046 50.0192 56.3046 48.6475C56.3046 47.2757 55.1926 46.1637 53.8208 46.1637C52.4491 46.1637 51.337 47.2757 51.337 48.6475C51.337 50.0192 52.4491 51.1312 53.8208 51.1312Z" fill="#E6E6E6"/>
<path d="M44.2337 10.6945C44.2337 12.8144 42.4934 14.4281 40.5001 14.4281C38.3802 14.4281 36.7665 12.6879 36.7665 10.6945C36.7665 8.57461 38.5067 8.21074 40.5001 8.21074C42.62 8.21074 44.2337 8.71699 44.2337 10.6945Z" fill="#263740"/>
<path d="M40.5 8.21074C40.3735 8.21074 40.2469 8.21074 40.1204 8.21074C42.1137 8.21074 43.6008 8.70117 43.6008 10.6945C43.6008 12.6879 42.1137 14.3016 40.1204 14.4281C40.2469 14.4281 40.3735 14.4281 40.5 14.4281C42.62 14.4281 44.2336 12.6879 44.2336 10.6945C44.2336 8.70117 42.62 8.21074 40.5 8.21074Z" fill="#1E2C33"/>
<path d="M43.6166 10.6945C43.6166 12.4348 42.2403 13.8111 40.5 13.8111C38.7598 13.8111 37.3834 12.4348 37.3834 10.6945C37.3834 8.95429 38.7598 8.82773 40.5 8.82773C42.2403 8.82773 43.6166 8.95429 43.6166 10.6945Z" fill="#F5F5F5"/>
</g>
<defs>
<clipPath id="clip0_136_11582">
<rect width="81" height="81" fill="white"/>
</clipPath>
</defs>
</svg>
